<svg xmlns="http://www.w3.org/2000/svg" version="1.1" xmlns:xlink="http://www.w3.org/1999/xlink" xmlns:svgjs="http://svgjs.dev/svgjs" width="100%" height="100%" viewBox="0 0 1000 600"><rect width="1000" height="600" x="0" y="0" fill="#1e293b"/><g><circle r="166.66666666666666" cx="339.31713358561194" cy="361.5393693971932" fill="#3c4f82" transform="matrix(0.7240061295414769,0,0,0.7240061295414768,0,38.24328456499248)"/><path d="M310.9023512331685 436.53937805099537L262.18681347280517 436.53937805099537L262.18681347280517 432.9366212391357L276.5978407202439 425.4804810545914L334.36726299041095 286.53938139722095L344.5176387038242 286.53938139722095L401.3472113708975 424.8225863324257L416.447461660605 432.9366212391357L416.447461660605 436.53937805099537L360.52641027652237 436.53937805099537L360.52641027652237 432.9366212391357L380.3572369018021 425.26118281386954L363.4399440461132 383.5318604365037L308.64671218574324 383.5318604365037L291.94871757077635 425.26118281386954L310.9023512331685 432.9366212391357L310.9023512331685 436.53937805099537ZM336.1529772362892 315.6433907730264L313.8158850027593 371.1258456756652L358.4900694698191 371.1258456756652L336.1529772362892 315.6433907730264Z " fill="#ffffff" transform="matrix(0.7240061295414769,0,0,0.7240061295414768,0,38.24328456499248)"/><path d="M622.008099424888 400.0642616586179L589.317138669703 400.0642616586179L589.317138669703 397.64660218154637L598.9877765779893 392.64309822030265L637.7544207146844 299.4055349088909L644.56591350226 299.4055349088909L682.7018638623279 392.20161257666354L692.8350105401408 397.64660218154637L692.8350105401408 400.0642616586179L655.3087308308127 400.0642616586179L655.3087308308127 397.64660218154637L668.6163695176501 392.4959363390896L657.2638815383575 364.4931326568347L620.4944343609823 364.4931326568347L609.2891082629028 392.4959363390896L622.008099424888 397.64660218154637L622.008099424888 400.0642616586179ZM638.9527388902765 318.9360188584515L623.9632501324328 356.1679748053535L653.94222764812 356.1679748053535L638.9527388902765 318.9360188584515ZM737.046644281719 401.5779267225236L737.046644281719 401.5779267225236Q722.3514792863014 401.5779267225236 713.8791595536071 392.64309822030265Q705.4068398209129 383.7082697180817 705.4068398209129 369.0341278485517L705.4068398209129 369.0341278485517Q705.4068398209129 357.6816398692592 710.0319275161802 348.9780657518016Q714.6359920855599 340.274491634344 722.519664293402 335.3550801766506Q730.3823133753565 330.43566871895706 740.2211362907433 330.43566871895706L740.2211362907433 330.43566871895706Q746.275796546366 330.43566871895706 752.0361330395625 332.4749119300522Q757.7754464068715 334.51415514114734 760.802776534683 337.85683215727244L760.802776534683 337.85683215727244Q763.2204360117545 340.7370004038707 763.2204360117545 342.39782734898944L763.2204360117545 342.39782734898944Q763.2204360117545 344.5211630636349 761.2652853042097 346.0348281275405L761.2652853042097 346.0348281275405L755.5049488110132 350.8701470816837L754.4537925166342 350.8701470816837L749.3031266741774 343.91149241289514Q747.0326290783188 340.88416228508373 743.6268826845311 338.99208095520163Q740.2211362907433 337.0999996253195 735.2176323294996 337.0999996253195L735.2176323294996 337.0999996253195Q726.8924744780184 337.0999996253195 722.1412480274256 343.68023802813167Q717.3689984509452 350.2604764309439 717.3689984509452 362.07547317976315L717.3689984509452 362.07547317976315Q717.3689984509452 369.32845161097777 719.7866579280168 375.76152813257687Q722.2043174050883 382.194604654176 727.8805613947346 386.21002169870354Q733.5568053843808 390.2254387432311 743.5427901809808 390.2254387432311L743.5427901809808 390.2254387432311Q751.867948032462 390.2254387432311 763.0732741305414 384.1707784876084L763.0732741305414 384.1707784876084L763.5357829000682 384.1707784876084L763.5357829000682 385.6844435515141Q760.0459440027302 392.20161257666354 753.1713818374918 396.8897696495936Q746.275796546366 401.5779267225236 737.046644281719 401.5779267225236ZM793.9562460593946 401.5779267225236L793.9562460593946 401.5779267225236Q786.8504295093929 401.5779267225236 782.1412493105753 397.415347796783Q777.4530922376454 393.2527688710424 777.4530922376454 385.83160543272714L777.4530922376454 385.83160543272714Q777.4530922376454 378.41044199441177 782.9821743460785 372.96545238952893Q788.5112564545117 367.520462784646 801.5245713789229 364.4931326568347L801.5245713789229 364.4931326568347L815.9043894860268 361.1714787665972L815.9043894860268 350.1133145497308Q815.9043894860268 344.962648707274 811.7418105602862 341.26257855106013Q807.5792316345456 337.54148526895875 802.2814039108758 337.54148526895875L802.2814039108758 337.54148526895875Q796.5210674176792 337.54148526895875 794.2505698218207 340.6529079003204Q791.9800722259622 343.764330531682 791.9800722259622 348.89397324825126L791.9800722259622 348.89397324825126L791.9800722259622 353.1406446775422L791.2232396940094 353.897477209495L783.3605906120549 353.897477209495Q781.0900930161964 353.897477209495 780.2491679806933 353.1406446775422Q779.4292660710777 352.3838121455893 779.4292660710777 349.65080578020405L779.4292660710777 349.65080578020405Q779.4292660710777 346.3291518899667 781.3844167786225 342.83931299262855Q783.3605906120549 339.370497221178 787.4390770342452 336.78465273700584L787.4390770342452 336.78465273700584Q791.6857484635361 334.07266949750823 796.3108361588035 332.24365754528884Q800.9149007281832 330.43566871895706 806.212728451853 330.43566871895706L806.212728451853 330.43566871895706Q811.5105561755229 330.43566871895706 816.5771295144293 331.94933378286277Q821.6647259792235 333.46299884676847 824.8392179882478 337.0159071217693Q828.0137099972723 340.56881539677005 828.0137099972723 346.93882254070644L828.0137099972723 346.93882254070644L828.0137099972723 389.93111498080503Q829.0648662916511 390.9822712751839 831.0410401250836 391.7391038071367Q833.017213958516 392.4959363390896 836.4860297299664 392.4959363390896L836.4860297299664 392.4959363390896L842.246366223163 392.4959363390896L842.6878518668021 392.7902601015157L842.6878518668021 393.2527688710424Q840.8798630404705 396.5744227612799 837.3269547654696 399.07617474190175Q833.7740464904688 401.5779267225236 828.623380648012 401.5779267225236L828.623380648012 401.5779267225236Q823.935223575082 401.5779267225236 820.9709628249333 399.07617474190175Q818.0277252006723 396.5744227612799 816.8083838991928 392.4959363390896L816.8083838991928 392.4959363390896L815.9043894860268 392.4959363390896Q811.9730649450496 396.42726088006685 806.1496590741903 399.01310536423904Q800.3052300774434 401.5779267225236 793.9562460593946 401.5779267225236ZM789.2680889864645 382.80427530491573L789.2680889864645 382.80427530491573Q789.2680889864645 392.20161257666354 800.6205769657571 392.20161257666354L800.6205769657571 392.20161257666354Q804.2575777443082 392.20161257666354 807.810486019309 391.4447800447106Q811.3633942943098 390.68794751275783 815.9043894860268 388.7117736793254L815.9043894860268 388.7117736793254L815.9043894860268 366.30112148316647Q803.7950689747814 368.57161907902497 798.2029174886856 371.07337105964683Q792.589742876702 373.5751230402687 790.9289159315832 376.45529128686695Q789.2680889864645 379.3354595334653 789.2680889864645 382.80427530491573ZM877.3549864554195 401.5779267225236L877.3549864554195 401.5779267225236Q869.7866611358912 401.5779267225236 863.8160933838188 397.7937640627594Q857.824502505859 394.0096014029953 854.418756112071 387.1140161118695Q851.0130097182833 380.23945394663116 851.0130097182833 370.69495479367043L851.0130097182833 370.69495479367043Q851.0130097182833 357.8288017504722 856.0165136795271 348.83090387058854Q861.0200176407708 339.81198286481725 869.345175492252 335.1238257918872Q877.6703333437332 330.43566871895706 887.5091562591201 330.43566871895706L887.5091562591201 330.43566871895706Q891.7348045625234 330.43566871895706 894.9092965715478 330.8140849849336Q898.1048117064598 331.19250125090997 900.6696330647443 331.80217190164973L900.6696330647443 331.80217190164973L900.6696330647443 303.79936821939486L890.8308101493575 295.91569601155277L890.8308101493575 294.8645397171739L911.8749591628239 286.5393818656927L912.7789535759898 286.5393818656927L912.7789535759898 393.2527688710424L923.5217709045424 397.64660218154637L923.5217709045424 400.0642616586179L902.1832981286501 400.0642616586179L900.9639568271705 392.3487744578766L899.9128005327915 392.3487744578766Q894.152464039595 397.18409341201965 888.7915669382625 399.39152163021544Q883.4096467110422 401.5779267225236 877.3549864554195 401.5779267225236ZM863.1223302295288 367.2261390222199L863.1223302295288 367.2261390222199Q863.1223302295288 379.77694517710444 869.7866611358912 385.45318916675075Q876.4509920422537 391.12943315639694 885.6801443069007 391.12943315639694L885.6801443069007 391.12943315639694Q889.3171450854519 391.12943315639694 893.1854002487663 389.99418435846775Q897.0326322861932 388.85893556053844 900.6696330647443 386.58843796467994L900.6696330647443 386.58843796467994L900.6696330647443 344.2058161753212Q897.0326322861932 341.03132416629677 893.4797240111924 339.43356659884086Q889.9268157361917 337.85683215727244 885.5329824256877 337.85683215727244L885.5329824256877 337.85683215727244Q879.478322170065 337.85683215727244 874.4117488311585 340.8000697815334Q869.345175492252 343.764330531682 866.2337528608904 350.1974070532811Q863.1223302295288 356.6304835748802 863.1223302295288 367.2261390222199ZM968.1748902897598 401.5779267225236L968.1748902897598 401.5779267225236Q953.5007484202298 401.5779267225236 945.0284286875357 392.64309822030265Q936.5350858289538 383.7082697180817 936.5350858289538 369.0341278485517L936.5350858289538 369.0341278485517Q936.5350858289538 357.6816398692592 941.013011643008 348.9780657518016Q945.4699143311747 340.274491634344 952.8069852659397 335.3550801766506Q960.1650793265923 330.43566871895706 968.7845609404995 330.43566871895706L968.7845609404995 330.43566871895706Q980.7467195705318 330.43566871895706 987.6212817357701 338.76082657043827Q994.516867026896 347.0859844219195 994.516867026896 362.6851438305029L994.516867026896 362.6851438305029L993.7600344949432 363.4419763624557L948.4972444589861 363.4419763624557Q948.6444063401992 370.40063103124436 951.2302508243713 376.5183606645298Q953.7950721826559 382.6571134237027 959.4713161723022 386.4412760834669Q965.1475601619485 390.2254387432311 974.6920593149092 390.2254387432311L974.6920593149092 390.2254387432311Q983.0172171663904 390.2254387432311 994.2225432644699 384.1707784876084L994.2225432644699 384.1707784876084L994.664028908109 384.1707784876084L994.664028908109 385.6844435515141Q991.1952131366585 392.20161257666354 984.2996278455327 396.8897696495936Q977.4040425544068 401.5779267225236 968.1748902897598 401.5779267225236ZM966.366901463428 337.0999996253195L966.366901463428 337.0999996253195Q959.0928999063258 337.0999996253195 954.488835336946 342.1665729642261Q949.8637476416787 347.2331463031325 948.8125913472998 356.46229856777967L948.8125913472998 356.46229856777967L983.0172171663904 356.46229856777967Q981.3563902212717 346.18199000875364 977.1938112955311 341.6409948170365Q973.0312323697905 337.0999996253195 966.366901463428 337.0999996253195ZM1040.9779752384452 400.0642616586179L1009.5063557847396 400.0642616586179L1009.5063557847396 397.64660218154637L1019.0298318118129 392.7902601015157L1019.0298318118129 347.69565507265924L1009.9478414283788 339.81198286481725L1009.9478414283788 338.76082657043827L1028.7214928459866 330.43566871895706L1029.6254872591526 330.43566871895706L1030.9919904418452 341.6409948170365L1031.7488229737978 341.6409948170365Q1037.3619975857814 335.88065832384 1042.575732805901 333.1686750843424Q1047.7894680260206 330.43566871895706 1054.0123132887438 330.43566871895706L1054.0123132887438 330.43566871895706Q1061.2652917199584 330.43566871895706 1066.4159575624153 333.69425323153183Q1071.5666234048722 336.9528377441065 1073.0802884687778 343.4489836433683L1073.0802884687778 343.4489836433683L1073.521774112417 343.4489836433683Q1079.8917812563532 336.78465273700584 1085.4208633647863 333.6101607279815Q1090.928922347332 330.43566871895706 1097.5932532536945 330.43566871895706L1097.5932532536945 330.43566871895706Q1106.0655729863888 330.43566871895706 1111.594655094822 334.89257140712385Q1117.1237372032551 339.370497221178 1117.1237372032551 348.13714071629846L1117.1237372032551 348.13714071629846L1117.1237372032551 392.7902601015157L1126.668236356216 397.64660218154637L1126.668236356216 400.0642616586179L1094.2715993634572 400.0642616586179L1094.2715993634572 397.64660218154637L1105.01441669201 392.7902601015157L1105.01441669201 355.26398039218765Q1105.01441669201 348.5996494858252 1100.9989996474824 345.10981058848705Q1096.9835826029548 341.6409948170365 1090.781760466119 341.6409948170365L1090.781760466119 341.6409948170365Q1085.6310946236622 341.6409948170365 1081.0900994319454 343.30182176215527Q1076.5491042402282 344.962648707274 1073.521774112417 348.305325723399L1073.521774112417 348.305325723399L1073.521774112417 392.7902601015157L1083.9702676785437 397.64660218154637L1083.9702676785437 400.0642616586179L1051.2793069233585 400.0642616586179L1051.2793069233585 397.64660218154637L1061.4124536011716 392.7902601015157L1061.4124536011716 355.26398039218765Q1061.4124536011716 348.5996494858252 1057.4180596825317 345.10981058848705Q1053.4026426380042 341.6409948170365 1047.2008205011684 341.6409948170365L1047.2008205011684 341.6409948170365Q1043.4166578414042 341.6409948170365 1038.7074776425866 343.0074979997292Q1034.0193205696564 344.35297805653425 1031.1391523230582 346.93882254070644L1031.1391523230582 346.93882254070644L1031.1391523230582 392.7902601015157L1040.9779752384452 397.64660218154637L1040.9779752384452 400.0642616586179ZM1144.9793790042972 436.5393850735671L1144.9793790042972 436.5393850735671Q1141.4895401069589 436.5393850735671 1140.6696381973434 435.5512981568509Q1139.8287131618404 434.58423436602226 1139.8287131618404 432.1455517630631L1139.8287131618404 432.1455517630631L1139.8287131618404 424.5772264435348L1140.43838381258 423.98857891868255L1147.3970384813688 423.98857891868255Q1151.1812011411328 423.98857891868255 1153.1573749745653 423.29481576439247Q1155.1125256821101 422.62207573599 1156.7733526272286 419.82599999294195Q1158.455202698235 417.0089011240064 1161.4825328260465 410.6599171059576L1161.4825328260465 410.6599171059576L1166.7803605497163 398.8449203571384L1139.0718806298873 339.05515033286434L1128.9387339520745 334.3669932599343L1128.9387339520745 331.94933378286277L1165.09851047871 331.94933378286277L1165.09851047871 334.3669932599343L1152.6948662050386 339.05515033286434L1152.6948662050386 339.81198286481725L1172.835020805339 383.7082697180817L1173.2765064489781 383.7082697180817L1190.2421690402543 340.7370004038707L1190.2421690402543 339.81198286481725L1178.8896810609617 334.3669932599343L1178.8896810609617 331.94933378286277L1208.5533116883353 331.94933378286277L1208.5533116883353 334.3669932599343L1197.2008237090427 339.5176591023912L1167.3690080745685 412.0264202886503Q1166.0235280177635 415.4952360601007 1165.0354411010471 417.8498261595095Q1164.0473541843312 420.20441625891834 1162.8280128828515 422.3908213512265Q1161.6296947072597 424.5772264435348 1159.359197111401 427.77274157844676L1159.359197111401 427.77274157844676Q1156.3318669835896 432.1455517630631 1152.5477043238257 434.3529799812589Q1148.7635416640614 436.5393850735671 1144.9793790042972 436.5393850735671Z " fill="#ffffff" transform="matrix(0.7240061295414769,0,0,0.7240061295414768,0,38.24328456499248)"/></g></svg>